<?xml version="1.0" encoding="UTF-8" standalone="no"?>
<!-- Created with Inkscape (http://www.inkscape.org/) -->

<svg
   xmlns:dc="http://purl.org/dc/elements/1.1/"
   xmlns:cc="http://creativecommons.org/ns#"
   xmlns:rdf="http://www.w3.org/1999/02/22-rdf-syntax-ns#"
   xmlns:svg="http://www.w3.org/2000/svg"
   xmlns="http://www.w3.org/2000/svg"
   xmlns:sodipodi="http://sodipodi.sourceforge.net/DTD/sodipodi-0.dtd"
   xmlns:inkscape="http://www.inkscape.org/namespaces/inkscape"
   version="1.1"
   id="svg815"
   xml:space="preserve"
   width="651.46716"
   height="115.15656"
   viewBox="0 0 651.46717 115.15656"
   sodipodi:docname="u-m_logo-pms.svg"
   inkscape:version="0.92.4 (5da689c313, 2019-01-14)"><metadata
     id="metadata821"><rdf:RDF><cc:Work
         rdf:about=""><dc:format>image/svg+xml</dc:format><dc:type
           rdf:resource="http://purl.org/dc/dcmitype/StillImage" /><dc:title></dc:title></cc:Work></rdf:RDF></metadata><defs
     id="defs819"><clipPath
       clipPathUnits="userSpaceOnUse"
       id="clipPath837"><rect
         style="opacity:0.25799997;fill:#00e600;fill-opacity:1;stroke:none;stroke-width:0;stroke-linecap:round;stroke-linejoin:round;stroke-miterlimit:4;stroke-dasharray:none;stroke-opacity:1"
         id="rect839"
         width="1136.0039"
         height="863.67426"
         x="190.6308"
         y="-1425.8405"
         transform="scale(1,-1)" /></clipPath></defs><sodipodi:namedview
     pagecolor="#ffffff"
     bordercolor="#666666"
     borderopacity="1"
     objecttolerance="10"
     gridtolerance="10"
     guidetolerance="10"
     inkscape:pageopacity="0"
     inkscape:pageshadow="2"
     inkscape:window-width="1920"
     inkscape:window-height="1001"
     id="namedview817"
     showgrid="false"
     inkscape:zoom="0.96390519"
     inkscape:cx="260.10833"
     inkscape:cy="-200.47204"
     inkscape:window-x="-9"
     inkscape:window-y="-9"
     inkscape:window-maximized="1"
     inkscape:current-layer="g823"
     fit-margin-top="0"
     fit-margin-left="0"
     fit-margin-right="500"
     fit-margin-bottom="0"
     showguides="true" /><g
     id="g823"
     inkscape:groupmode="layer"
     inkscape:label="ink_ext_XXXXXX"
     transform="matrix(1.3333333,0,0,-1.3333333,-25.417439,190.11206)"><g
       id="g825"
       transform="scale(0.1)"
       clip-path="url(#clipPath837)"><path
         d="M 1514.36,0 H 0 V 1604.83 H 1514.36 V 0"
         style="fill:#15213b;fill-opacity:1;fill-rule:nonzero;stroke:none"
         id="path827"
         inkscape:connector-curvature="0" /><path
         d="M 755.879,750.023 535.988,1052.35 V 832.465 h 87.957 V 615.34 H 217.148 v 217.125 h 82.454 v 338.065 h -82.454 v 217.15 h 319.543 l 220.262,-305.08 220.742,305.08 h 319.515 v -217.15 h -82.46 V 832.465 h 82.46 V 615.34 H 890.441 v 217.125 h 87.938 v 219.885 l -222.5,-302.327"
         style="fill:#ecc00c;fill-opacity:1;fill-rule:nonzero;stroke:none"
         id="path829"
         inkscape:connector-curvature="0" /><path
         d="m 1000.54,281.262 v -7.801 c -13.126,-0.82 -13.126,-4.531 -13.497,-32.051 v -10.898 c -11.281,-6.973 -27.375,-17.051 -55.852,-17.051 -49.921,0 -73.769,37.82 -73.769,75.82 0,46.43 31.437,76.617 70.832,76.617 24.773,0 39.023,-9.226 50.859,-16.418 l 7.578,8.629 1.102,-45.41 -5.918,-1.027 c -2.949,8.629 -7.391,18.59 -18.301,29.488 -4.804,4.719 -14.062,10.781 -28.672,10.781 -25.332,0 -46.414,-21.371 -46.414,-63.089 0,-33.282 16.453,-61.832 44.746,-61.832 16.082,0 24.403,11.312 25.145,12.128 2.59,3.903 3.184,7.383 2.961,13.774 -0.656,18.469 -3.145,18.879 -19.238,20.539 v 7.801 z m 143.19,-64.114 v 7.801 c 11.92,0.621 16.44,0.821 18.09,9.039 2.05,9.672 2.66,95.742 2.87,110.742 -8.01,7.379 -11.3,8.829 -20.96,9.649 v 7.812 h 43.56 c 12.12,-17.261 14.79,-21.152 36.16,-47.652 l 40.47,-50.141 v 64.922 c -0.21,23.012 -0.82,24.239 -23.83,25.059 v 7.812 h 57.12 v -7.812 c -15.82,-0.188 -17.26,-3.5 -17.46,-27.109 l -2.06,-111.969 h -8.63 l -12.95,16.23 c -6.57,8.219 -13.14,16.418 -19.72,24.449 l -57.32,70.711 v -75.242 c 0,-23.418 1.64,-24.238 23.83,-26.5 v -7.801 z m -800.644,0 v 7.801 c 18.293,1.231 18.293,2.051 18.496,28.961 v 72.949 L 310.84,215.301 h -12.742 l -46.582,113.031 -1.086,-85.301 c 0,-14.179 1.652,-16.851 17.062,-18.082 v -7.801 h -50.344 v 7.801 c 11.711,0.621 16.231,2.262 17.051,12.133 0.41,3.898 1.028,16.027 1.242,24.039 l 2.051,60.801 c 0.203,4.726 0.203,11.719 0.203,16.859 0,14.367 -2.879,15.41 -15.82,15.598 v 7.812 h 45.605 l 45.208,-110.109 49.714,110.109 h 44.172 v -8.632 c -17.258,-1.02 -17.461,-2.868 -17.258,-25.469 v -59.781 c 0,-9.868 0.207,-22.188 0.821,-29.59 0.82,-10.688 4.933,-12.739 16.437,-13.77 v -7.801 z m 77.707,0 v 7.801 c 14.18,1.852 17.051,3.492 17.254,18.711 v 18.469 58.769 c -0.203,30.204 -0.203,31.024 -17.254,33.481 v 7.812 h 60.223 v -7.812 c -17.051,-1.641 -17.051,-2.457 -17.051,-33.481 v -58.546 c 0,-5.141 0.207,-21.372 0.617,-25.68 1.023,-8.832 5.137,-10.902 16.434,-11.723 v -7.801 z m 372.195,0 v 7.801 c 14.192,1.852 17.071,3.492 17.278,18.711 v 18.469 58.769 c -0.207,30.204 -0.207,31.024 -17.278,33.481 v 7.812 h 60.293 v -7.812 C 836.23,352.738 836.23,351.922 836.23,320.898 v -58.546 c 0,-5.141 0.208,-21.372 0.625,-25.68 1.028,-8.832 5.137,-10.902 16.426,-11.723 v -7.801 z m -165.359,0 v 7.801 c 16.434,1.442 16.641,4.942 16.641,18.903 0.203,5.136 0.203,10.277 0.203,15.41 v 60.82 c 0,9.438 0,18.887 -0.614,23.418 -0.82,8.609 -4.933,9.859 -16.23,10.879 v 7.812 h 62.098 v -7.812 c -12.129,-1.231 -16.641,-1.641 -18.086,-9.649 -1.024,-4.718 -1.231,-15.41 -1.231,-24.039 v -20.043 c 12.531,-0.609 21.27,-1.019 33.391,-1.019 12.324,0 22.078,0.41 34.414,1.019 v 24.364 c -0.207,26.5 -0.41,27.527 -20.137,29.367 v 7.812 h 62.91 v -7.812 c -16.867,-2.047 -16.867,-2.27 -16.867,-29.777 v -61.243 c 0,-5.738 0.207,-24.039 0.82,-28.328 1.028,-7.621 5.352,-9.051 16.047,-10.082 v -7.801 h -62.91 v 7.801 c 14.59,1.66 18.485,2.051 19.727,12.133 0.41,4.098 0.41,9.637 0.41,20.129 v 26.598 c -11.504,0.41 -21.067,1.023 -32.981,1.023 -12.527,0 -22.293,-0.391 -34.824,-1.023 V 257.211 C 670.617,227 671.027,227 689.727,224.949 v -7.801 z m -10.723,32.25 c -6.437,-10.468 -21.855,-36.148 -61.875,-36.148 -43.711,0 -72.023,32.238 -72.023,74.57 0,39.239 24.015,77.871 73,77.871 25.762,0 39.433,-10.902 47.82,-17.461 l 9.953,9.04 0.782,-43.961 -6.446,-1.25 c -2.531,8.429 -6.242,15.211 -15.605,25.48 -4.492,4.731 -15.227,14.16 -30.449,14.16 -26.153,0 -46.848,-21.34 -46.848,-58.937 0,-31.864 16.984,-61.864 50.558,-61.864 25.372,0 34.883,14.161 42.5,25.043 z m 450.294,84.184 -21.32,-60.121 h 41.67 z m 12.98,-116.434 v 7.801 c 9.86,0.621 17.47,1.442 17.47,9.449 0,2.872 -0.83,5.961 -1.65,8.633 l -4.35,14.809 h -51.15 l -4.49,-12.539 c -1.03,-3.09 -1.85,-5.981 -1.85,-9.039 0,-10.282 10.89,-10.903 19.72,-11.313 v -7.801 h -59.786 v 7.801 c 15.206,0.621 20.136,3.711 25.686,18.903 l 39.23,107.66 -2.25,3.5 c 16.84,5.539 21.57,8 28.76,13.347 2.88,-9.859 3.29,-11.089 6.58,-21.359 l 32.05,-98.621 c 5.75,-17.481 8.42,-21.77 23.83,-23.43 v -7.801 h -67.8"
         style="fill:#ffffff;fill-opacity:1;fill-rule:nonzero;stroke:none"
         id="path831"
         inkscape:connector-curvature="0" /><path
         d="m 701.133,438.969 c 0.137,-21.989 0.137,-24.957 11.68,-25.207 v -5.321 h -40.04 v 5.321 c 10.325,0.797 11.407,2.437 11.543,12.75 0.137,3.937 0.137,8.398 0.137,12.34 v 34.687 c 0,11.543 -0.137,15.609 -0.547,18.731 -0.672,5.289 -3.25,6.25 -11.133,6.921 v 5.168 l 43.45,-0.168 c 23.621,0 31.093,-11.269 31.093,-24.582 0,-9.23 -5.703,-21.25 -18.878,-25.328 l 16.984,-29.531 c 6.113,-11.27 9.363,-13.871 17.109,-14.941 v -3.258 c -2.043,-0.141 -4.074,-0.27 -6.25,-0.27 -18.058,0 -25.527,6.25 -33.136,22.399 l -5.301,11.289 c -5.696,12.07 -7.598,11.32 -16.699,11.461 z m 0.012,20.883 c 2.578,-0.532 6.25,-0.942 8.964,-0.942 10.907,-0.039 19.149,8.52 19.551,16.192 0.586,11.136 -5.019,20.757 -22.676,20.757 -2.441,0 -3.937,-0.129 -5.839,-0.539 z m -39.59,-51.411 c 0,6.918 1.218,18.34 2.039,24.848 h -4.629 C 655.703,416.18 646.066,417 632.207,417 c -12.762,0 -15.34,3.398 -15.34,9.648 v 26.813 h 10.321 c 11.816,0 15.207,-1.012 15.207,-11.762 h 4.617 v 31.66 h -4.617 c -0.95,-8.55 -2.715,-11.339 -15.079,-11.339 h -10.449 v 33.769 h 11.817 c 16.289,0 22.136,-1.23 24.304,-14.258 h 4.348 l -0.547,22.809 h -68.312 v -5.149 c 6.925,-0.691 9.914,-1.101 10.871,-5.57 0.672,-2.992 0.808,-13.582 0.808,-17.383 v -33.707 c 0,-2.582 -0.136,-14.133 -0.273,-16.429 -0.274,-10.473 -1.492,-11.411 -11.406,-12.364 v -5.297 z m 347.995,0 v 5.161 c 7.47,0.82 10.32,1.089 12.23,2.988 2.18,2.172 2.18,4.609 2.3,15.082 V 448.5 l -25.525,39.531 c -6.922,10.321 -7.059,10.59 -16.297,11.141 v 5.289 h 49.982 v -5.289 c -10.05,-0.281 -14.53,-0.551 -14.53,-5.16 0,-2.582 1.76,-5.571 4.2,-9.653 l 14.68,-24.019 13.57,23.879 c 2.45,4.75 3.81,7.601 3.81,9.793 0,4.609 -3.94,4.75 -10.6,5.16 v 5.289 h 37.49 v -5.289 c -9.65,-0.281 -12.5,-3.133 -23.5,-21.063 l -14.94,-24.98 v -19.981 c 0,-17.378 0.14,-18.726 14.4,-19.546 v -5.161 z M 584.375,504.32 v -5.148 c -9.227,-1.371 -10.457,-3.953 -18.328,-22.953 l -29.199,-69.688 h -5.168 l -26.211,70.758 c -6.512,18.199 -7.332,20.371 -16.973,21.883 v 5.148 h 45.5 v -5.148 c -7.746,-0.281 -12.773,-0.551 -12.773,-6.121 0,-2.711 0.683,-5.02 3.261,-13.039 l 16.707,-48.75 19.551,50.386 c 1.231,3.391 2.852,7.731 2.852,10.172 0,6.942 -6.785,7.211 -12.762,7.352 v 5.148 z m -324.969,0 v -5.148 c -12.765,-0.961 -12.765,-1.371 -12.902,-21.742 v -22.539 c 0,-11.68 0.226,-21.7 6.387,-30.7 4.902,-7.152 13.242,-8.07 17.453,-8.07 13.711,0 21.25,7.129 24.511,18.399 2.715,8.96 2.852,25.8 2.852,36.929 0,3.539 0,14.942 -0.137,18.071 -0.547,8.691 -5.019,8.96 -13.586,9.652 v 5.148 h 36.543 v -5.148 c -8.964,0.129 -10.867,-1.922 -11.414,-11.41 -0.136,-2.321 -1.222,-28.953 -1.359,-33.012 -0.274,-7.32 -0.672,-14.531 -2.305,-21.461 -6.523,-25.801 -31.648,-27.148 -38.301,-27.148 -5.3,0 -16.16,0.8 -25.125,6.781 -14.257,9.637 -14.394,24.039 -14.394,39.527 v 21.723 c -0.137,10.328 -0.137,14.937 -0.41,17.379 -0.813,5.98 -3.801,7.211 -10.996,7.621 v 5.148 z m 651.375,-95.879 v 4.071 c 8.84,0.129 11.282,3.386 11.282,11.008 v 70.628 h -11.954 c -10.871,0 -18.066,0.411 -18.879,-16.699 h -5.027 l 0.82,26.891 h 87.188 l 0.82,-26.891 H 970 c -0.809,17.11 -8.008,16.699 -18.875,16.699 H 939.172 V 423.52 c 0,-7.622 2.441,-10.879 11.269,-11.008 l 0.008,-4.071 z m -147.918,29.891 4.891,0.52 c 5.305,-15.602 14.152,-24.02 28.555,-24.02 10.214,0 19.179,4.34 19.179,14.668 0,10.859 -10.468,15.191 -15.086,17.109 -3.82,1.481 -7.89,2.711 -11.699,4.2 -7.89,2.851 -22.715,8.961 -22.715,27.57 0,17.93 14.149,27.973 30.594,27.973 6.398,0 13.879,-1.34 22.031,-6.5 l 5.832,4.199 3.125,-28.52 -4.746,-0.949 c -1.633,6.25 -2.863,9.156 -6.66,14.199 -4.621,5.969 -11.144,8.75 -18.762,8.75 -10.195,0 -16.179,-4.89 -16.179,-12.492 0,-11.398 11.289,-15.207 22.031,-18.75 5.437,-1.75 9.922,-3.258 13.855,-5.559 7.61,-4.492 13.86,-12.91 13.86,-24.449 0,-16.57 -13.586,-30.281 -33.84,-30.281 -13.055,0 -21.082,5.16 -24.883,7.602 l -7.996,5.839 z m -435.09,-29.891 v 5.161 c 7.883,0.41 10.872,0.546 11.954,5.98 1.359,6.379 1.769,63.277 1.906,73.199 -5.305,4.879 -7.473,5.84 -13.86,6.391 v 5.148 h 28.79 c 8.019,-11.398 9.785,-13.98 23.906,-31.5 l 26.758,-33.148 v 42.91 c -0.137,15.219 -0.547,16.039 -15.762,16.59 v 5.148 h 37.765 v -5.148 c -10.46,-0.141 -11.406,-2.313 -11.542,-17.934 l -1.36,-74.027 h -5.711 l -8.554,10.73 c -4.348,5.438 -8.692,10.868 -13.04,16.168 l -37.89,46.743 v -49.731 c 0,-15.492 1.086,-16.039 15.754,-17.519 v -5.161 z m 509.485,0 v 5.161 c 9.375,1.23 11.277,2.296 11.414,12.359 v 12.23 38.829 c -0.137,19.98 -0.137,20.511 -11.414,22.152 v 5.148 h 39.805 v -5.148 c -11.27,-1.102 -11.27,-1.641 -11.27,-22.152 v -38.688 c 0,-3.402 0.137,-14.141 0.41,-17 0.672,-5.844 3.399,-7.184 10.86,-7.73 v -5.161 z m -397.707,0 v 5.161 c 9.367,1.23 11.269,2.296 11.406,12.359 v 12.23 38.829 c -0.137,19.98 -0.137,20.511 -11.406,22.152 v 5.148 h 39.824 v -5.148 c -11.27,-1.102 -11.27,-1.641 -11.27,-22.152 v -38.688 c 0,-3.402 0.137,-14.141 0.411,-17 0.675,-5.844 3.398,-7.184 10.859,-7.73 v -5.161 z m 784.919,4.61 v -5.289 h 39.71 v 5.289 c -9.91,0.961 -11.13,1.918 -11.41,12.371 l 0.07,27.359 h 10.6 c 10.72,0 16.42,-1.019 17.11,-11.742 h 4.62 v 31.641 h -4.62 c -0.55,-10.328 -3.4,-11.348 -15.08,-11.348 h -12.63 l 0.01,33.207 c 3.4,0.41 5.3,0.543 11.42,0.543 18.74,0 24.78,0.078 27.29,-14.941 h 4.76 l -1.5,23.5 h -70.34 v -5.161 c 6.93,-0.679 9.92,-1.089 10.86,-5.558 0.69,-2.992 0.82,-13.582 0.82,-17.391 l -0.02,-33.691 c 0,-2.578 -0.13,-14.121 -0.27,-16.418 -0.26,-10.453 -1.49,-11.41 -11.4,-12.371 z m -52.55,1.097 c 5.42,0.153 13.06,2.852 18.99,11.852 6.78,10.41 8.16,19.961 7.78,32.441 -0.38,12.368 -3.83,22.989 -10.88,30.508 -3.08,3.301 -9.16,8.153 -17.16,7.91 -7.99,0 -13.91,-5.039 -16.9,-8.418 -6.82,-7.73 -9.93,-18.472 -9.93,-30.839 0,-12.5 1.68,-21.993 8.77,-32.18 6.2,-8.832 13.91,-11.274 19.33,-11.274 z m 47.89,41.704 c 0,-33.153 -22.57,-50.532 -47.99,-50.532 -27.87,0 -49.68,20.102 -49.68,50.66 0,26.211 17.55,49.852 48.39,49.711 29.03,-0.14 49.28,-20.781 49.28,-49.839"
         style="fill:#ffffff;fill-opacity:1;fill-rule:nonzero;stroke:none"
         id="path833"
         inkscape:connector-curvature="0" /></g><text
       xml:space="preserve"
       style="font-style:normal;font-variant:normal;font-weight:normal;font-stretch:normal;font-size:72.0000018px;line-height:1.25;font-family:'Book Antiqua';-inkscape-font-specification:'Book Antiqua';font-variant-ligatures:normal;font-variant-caps:normal;font-variant-numeric:normal;font-feature-settings:normal;text-align:start;letter-spacing:0px;word-spacing:0px;writing-mode:lr-tb;text-anchor:start;fill:#000000;fill-opacity:1;stroke:none;stroke-width:0.75;"
       x="142.9731"
       y="-67.887901"
       id="text843"
       transform="scale(1,-1)"><tspan
         sodipodi:role="line"
         id="tspan841"
         x="142.9731"
         y="53.845043"
         style="stroke-width:0.75;font-size:72.0000018px;" /></text>
<text
       xml:space="preserve"
       style="font-style:normal;font-variant:normal;font-weight:normal;font-stretch:normal;font-size:72px;line-height:1.25;font-family:'Book Antiqua';-inkscape-font-specification:'Book Antiqua';font-variant-ligatures:normal;font-variant-caps:normal;font-variant-numeric:normal;font-feature-settings:normal;text-align:start;letter-spacing:0px;word-spacing:0px;writing-mode:lr-tb;text-anchor:start;fill:#000000;fill-opacity:1;stroke:none;stroke-width:0.75"
       x="136.94293"
       y="-66.331726"
       id="text847"
       transform="scale(1,-1)"><tspan
         sodipodi:role="line"
         id="tspan845"
         x="136.94293"
         y="-66.331726"
         style="stroke-width:0.75;font-size:90.00000225px">|Chroma</tspan></text>
</g></svg>